<?xml version="1.0" standalone="no"?>
<!DOCTYPE svg PUBLIC "-//W3C//DTD SVG 20010904//EN"
 "http://www.w3.org/TR/2001/REC-SVG-20010904/DTD/svg10.dtd">
<svg version="1.0" xmlns="http://www.w3.org/2000/svg"
 width="391.000000pt" height="391.000000pt" viewBox="0 0 391.000000 391.000000"
 preserveAspectRatio="xMidYMid meet">
<metadata>
Created by potrace 1.14, written by Peter Selinger 2001-2017
</metadata>
<g transform="translate(0.000000,391.000000) scale(0.100000,-0.100000)"
fill="#000000" stroke="none">
<path d="M1015 2928 c-109 -10 -146 -15 -210 -33 -33 -9 -64 -18 -70 -19 -19
-3 -150 -70 -156 -79 -3 -5 -10 -9 -15 -9 -5 1 -33 -20 -63 -46 -30 -26 -57
-49 -60 -52 -47 -38 -178 -256 -172 -285 1 -3 -5 -18 -13 -33 -18 -36 -53
-206 -62 -307 -10 -112 -5 -303 10 -371 2 -12 7 -38 10 -59 19 -117 115 -328
170 -374 9 -7 13 -17 10 -22 -3 -5 -1 -9 4 -9 5 0 24 -15 43 -33 54 -53 110
-93 164 -119 28 -12 53 -27 57 -33 4 -5 8 -6 8 -2 0 4 10 2 22 -5 13 -6 30
-13 38 -13 8 -1 35 -8 60 -15 25 -7 56 -14 70 -16 14 -2 43 -5 65 -8 50 -7
236 -7 290 -1 118 15 244 45 297 72 15 7 31 14 35 14 13 2 79 37 129 69 44 28
84 70 67 70 -5 0 -15 21 -23 48 -7 26 -24 74 -38 106 -13 33 -24 68 -25 78 -1
10 -4 18 -8 18 -3 0 -11 18 -18 40 -13 45 -14 45 -77 -8 -23 -19 -45 -34 -48
-33 -3 0 -15 -8 -26 -19 -34 -34 -182 -99 -265 -116 -47 -10 -165 -11 -211 -3
-268 50 -426 362 -380 749 5 36 9 73 9 83 1 9 5 17 10 17 4 0 6 4 3 8 -20 33
72 222 144 293 52 53 141 108 185 115 11 2 39 8 61 12 55 12 176 6 222 -9 21
-7 42 -14 47 -15 35 -6 106 -49 145 -86 55 -53 100 -109 100 -125 0 -6 4 -13
8 -15 17 -7 67 -131 132 -325 38 -112 67 -203 66 -203 -2 0 17 -55 41 -122 24
-68 45 -127 46 -133 2 -5 13 -29 25 -52 12 -24 19 -43 15 -43 -5 0 -3 -4 2 -8
10 -7 97 -132 122 -176 7 -12 13 -18 13 -14 0 4 21 -14 48 -40 26 -26 72 -63
102 -82 30 -19 57 -37 60 -40 11 -11 198 -80 245 -90 22 -5 51 -11 65 -15 121
-30 515 -36 604 -9 10 4 33 7 50 9 17 1 38 5 46 8 8 2 35 10 60 17 130 37 232
99 306 185 26 30 49 61 50 68 1 6 10 30 20 52 60 136 38 388 -45 509 -16 23
-29 46 -31 51 -1 6 -4 12 -7 15 -4 3 -3 -2 2 -10 4 -8 -1 -6 -12 5 -11 11 -19
23 -16 28 2 4 -2 7 -11 7 -8 0 -16 4 -18 8 -4 12 -95 72 -107 72 -6 0 -11 5
-11 10 0 6 -3 9 -7 8 -8 -1 -47 13 -88 32 -20 9 -60 22 -80 26 -5 1 -28 6 -50
12 -42 12 -81 20 -130 28 -16 3 -43 9 -60 14 -16 5 -43 11 -60 14 -59 9 -147
43 -179 68 -61 49 -86 140 -64 228 15 59 86 122 151 136 104 22 115 23 209 10
130 -18 214 -102 223 -221 0 -13 88 -9 235 10 19 3 55 7 80 10 25 3 54 7 65 9
11 3 23 5 27 5 9 1 2 44 -18 121 -18 64 -61 157 -86 182 -10 10 -18 22 -18 28
0 6 -5 10 -11 10 -6 0 -16 6 -23 13 -32 30 -76 67 -76 62 0 -2 -17 4 -37 15
-64 32 -95 44 -148 54 -16 3 -41 8 -54 11 -116 23 -346 22 -446 -2 -11 -3 -27
-6 -35 -8 -8 -1 -22 -5 -30 -8 -8 -3 -33 -11 -55 -17 -48 -15 -129 -52 -133
-62 -2 -5 -8 -8 -13 -8 -5 0 -23 -12 -40 -27 -17 -16 -37 -27 -43 -25 -6 2 -8
1 -4 -3 3 -4 -1 -16 -10 -27 -9 -11 -25 -29 -35 -41 -23 -27 -62 -111 -78
-168 -16 -57 -20 -222 -7 -285 6 -27 11 -56 12 -64 6 -39 64 -130 115 -180 74
-72 208 -138 336 -166 153 -33 284 -65 330 -81 28 -9 53 -16 57 -15 3 1 12 -5
18 -13 7 -8 18 -15 24 -15 6 0 28 -16 49 -36 38 -38 66 -106 61 -153 -1 -14
-2 -34 -3 -43 -1 -9 -7 -23 -14 -30 -7 -7 -13 -17 -13 -23 0 -18 -77 -63 -135
-79 -113 -32 -331 -36 -449 -7 -76 18 -175 61 -218 94 -63 50 -187 197 -165
197 4 0 2 4 -5 8 -15 10 -104 227 -106 259 0 13 -5 23 -10 23 -5 0 -6 3 -3 7
4 3 2 12 -4 20 -6 7 -8 13 -4 13 4 0 3 6 -3 13 -6 7 -13 24 -16 37 -2 14 -11
42 -20 62 -9 21 -16 40 -16 43 0 3 0 6 0 8 0 1 -16 47 -36 102 -19 55 -36 105
-37 110 -2 6 -9 20 -15 33 -7 12 -10 22 -7 22 3 0 -2 11 -11 25 -9 14 -12 25
-8 25 5 0 4 4 -2 8 -16 10 -64 99 -57 106 3 3 -2 8 -11 12 -9 3 -16 10 -16 15
0 24 -147 174 -210 215 -25 16 -58 36 -75 44 -16 8 -33 19 -37 25 -4 5 -8 7
-8 3 0 -3 -26 3 -57 14 -58 20 -71 24 -128 33 -16 3 -37 8 -45 10 -14 4 -147
15 -230 18 -19 1 -66 -1 -105 -5z"/>
</g>
</svg>
