<svg version="1.0" xmlns="http://www.w3.org/2000/svg" width="521.333" height="521.333" viewBox="0 0 391 391"><path d="M101.5 98.2c-10.9 1-14.6 1.5-21 3.3-3.3.9-6.4 1.8-7 1.9-1.9.3-15 7-15.6 7.9-.3.5-1 .9-1.5.9-.5-.1-3.3 2-6.3 4.6-3 2.6-5.7 4.9-6 5.2-4.7 3.8-17.8 25.6-17.2 28.5.1.3-.5 1.8-1.3 3.3-1.8 3.6-5.3 20.6-6.2 30.7-1 11.2-.5 30.3 1 37.1.2 1.2.7 3.8 1 5.9 1.9 11.7 11.5 32.8 17 37.4.9.7 1.3 1.7 1 2.2-.3.5-.1.9.4.9s2.4 1.5 4.3 3.3c5.4 5.3 11 9.3 16.4 11.9 2.8 1.2 5.3 2.7 5.7 3.3.4.5.8.6.8.2 0-.4 1-.2 2.2.5 1.3.6 3 1.3 3.8 1.3.8.1 3.5.8 6 1.5s5.6 1.4 7 1.6c1.4.2 4.3.5 6.5.8 5 .7 23.6.7 29 .1 11.8-1.5 24.4-4.5 29.7-7.2 1.5-.7 3.1-1.4 3.5-1.4 1.3-.2 7.9-3.7 12.9-6.9 4.4-2.8 8.4-7 6.7-7-.5 0-1.5-2.1-2.3-4.8-.7-2.6-2.4-7.4-3.8-10.6-1.3-3.3-2.4-6.8-2.5-7.8-.1-1-.4-1.8-.8-1.8-.3 0-1.1-1.8-1.8-4-1.3-4.5-1.4-4.5-7.7.8-2.3 1.9-4.5 3.4-4.8 3.3-.3 0-1.5.8-2.6 1.9-3.4 3.4-18.2 9.9-26.5 11.6-4.7 1-16.5 1.1-21.1.3-26.8-5-42.6-36.2-38-74.9.5-3.6.9-7.3.9-8.3.1-.9.5-1.7 1-1.7.4 0 .6-.4.3-.8-2-3.3 7.2-22.2 14.4-29.3 5.2-5.3 14.1-10.8 18.5-11.5 1.1-.2 3.9-.8 6.1-1.2 5.5-1.2 17.6-.6 22.2.9 2.1.7 4.2 1.4 4.7 1.5 3.5.6 10.6 4.9 14.5 8.6 5.5 5.3 10 10.9 10 12.5 0 .6.4 1.3.8 1.5 1.7.7 6.7 13.1 13.2 32.5 3.8 11.2 6.7 20.3 6.6 20.3-.2 0 1.7 5.5 4.1 12.2 2.4 6.8 4.5 12.7 4.6 13.3.2.5 1.3 2.9 2.5 5.2 1.2 2.4 1.9 4.3 1.5 4.3-.5 0-.3.4.2.8 1 .7 9.7 13.2 12.2 17.6.7 1.2 1.3 1.8 1.3 1.4 0-.4 2.1 1.4 4.8 4 2.6 2.6 7.2 6.3 10.2 8.2 3 1.9 5.7 3.7 6 4 1.1 1.1 19.8 8 24.5 9 2.2.5 5.1 1.1 6.5 1.5 12.1 3 51.5 3.6 60.4.9 1-.4 3.3-.7 5-.9 1.7-.1 3.8-.5 4.6-.8.8-.2 3.5-1 6-1.7 13-3.7 23.2-9.9 30.6-18.5 2.6-3 4.9-6.1 5-6.8.1-.6 1-3 2-5.2 6-13.6 3.8-38.8-4.5-50.9-1.6-2.3-2.9-4.6-3.1-5.1-.1-.6-.4-1.2-.7-1.5-.4-.3-.3.2.2 1 .4.8-.1.6-1.2-.5-1.1-1.1-1.9-2.3-1.6-2.8.2-.4-.2-.7-1.1-.7-.8 0-1.6-.4-1.8-.8-.4-1.2-9.5-7.2-10.7-7.2-.6 0-1.1-.5-1.1-1 0-.6-.3-.9-.7-.8-.8.1-4.7-1.3-8.8-3.2-2-.9-6-2.2-8-2.6-.5-.1-2.8-.6-5-1.2-4.2-1.2-8.1-2-13-2.8-1.6-.3-4.3-.9-6-1.4-1.6-.5-4.3-1.1-6-1.4-5.9-.9-14.7-4.3-17.9-6.8-6.1-4.9-8.6-14-6.4-22.8 1.5-5.9 8.6-12.2 15.1-13.6 10.4-2.2 11.5-2.3 20.9-1 13 1.8 21.4 10.2 22.3 22.1 0 1.3 8.8.9 23.5-1 1.9-.3 5.5-.7 8-1 2.5-.3 5.4-.7 6.5-.9 1.1-.3 2.3-.5 2.7-.5.9-.1.2-4.4-1.8-12.1-1.8-6.4-6.1-15.7-8.6-18.2-1-1-1.8-2.2-1.8-2.8 0-.6-.5-1-1.1-1-.6 0-1.6-.6-2.3-1.3-3.2-3-7.6-6.7-7.6-6.2 0 .2-1.7-.4-3.7-1.5-6.4-3.2-9.5-4.4-14.8-5.4-1.6-.3-4.1-.8-5.4-1.1-11.6-2.3-34.6-2.2-44.6.2-1.1.3-2.7.6-3.5.8-.8.1-2.2.5-3 .8-.8.3-3.3 1.1-5.5 1.7-4.8 1.5-12.9 5.2-13.3 6.2-.2.5-.8.8-1.3.8s-2.3 1.2-4 2.7c-1.7 1.6-3.7 2.7-4.3 2.5-.6-.2-.8-.1-.4.3.3.4-.1 1.6-1 2.7s-2.5 2.9-3.5 4.1c-2.3 2.7-6.2 11.1-7.8 16.8-1.6 5.7-2 22.2-.7 28.5.6 2.7 1.1 5.6 1.2 6.4.6 3.9 6.4 13 11.5 18 7.4 7.2 20.8 13.8 33.6 16.6 15.3 3.3 28.4 6.5 33 8.1 2.8.9 5.3 1.6 5.7 1.5.3-.1 1.2.5 1.8 1.3.7.8 1.8 1.5 2.4 1.5.6 0 2.8 1.6 4.9 3.6 3.8 3.8 6.6 10.6 6.1 15.3-.1 1.4-.2 3.4-.3 4.3-.1.9-.7 2.3-1.4 3-.7.7-1.3 1.7-1.3 2.3 0 1.8-7.7 6.3-13.5 7.9-11.3 3.2-33.1 3.6-44.9.7-7.6-1.8-17.5-6.1-21.8-9.4-6.3-5-18.7-19.7-16.5-19.7.4 0 .2-.4-.5-.8-1.5-1-10.4-22.7-10.6-25.9 0-1.3-.5-2.3-1-2.3s-.6-.3-.3-.7c.4-.3.2-1.2-.4-2-.6-.7-.8-1.3-.4-1.3s.3-.6-.3-1.3c-.6-.7-1.3-2.4-1.6-3.7-.2-1.4-1.1-4.2-2-6.2-.9-2.1-1.6-4-1.6-4.3v-.8c0-.1-1.6-4.7-3.6-10.2-1.9-5.5-3.6-10.5-3.7-11-.2-.6-.9-2-1.5-3.3-.7-1.2-1-2.2-.7-2.2.3 0-.2-1.1-1.1-2.5-.9-1.4-1.2-2.5-.8-2.5.5 0 .4-.4-.2-.8-1.6-1-6.4-9.9-5.7-10.6.3-.3-.2-.8-1.1-1.2-.9-.3-1.6-1-1.6-1.5 0-2.4-14.7-17.4-21-21.5-2.5-1.6-5.8-3.6-7.5-4.4-1.6-.8-3.3-1.9-3.7-2.5-.4-.5-.8-.7-.8-.3 0 .3-2.6-.3-5.7-1.4-5.8-2-7.1-2.4-12.8-3.3-1.6-.3-3.7-.8-4.5-1-1.4-.4-14.7-1.5-23-1.8-1.9-.1-6.6.1-10.5.5z"/></svg>